<svg xmlns="http://www.w3.org/2000/svg" viewBox="0 0 32 32" role="img" aria-label="EuroTour">
  <defs>
    <linearGradient id="ocean" x1="0%" y1="0%" x2="100%" y2="100%">
      <stop offset="0%" stop-color="#38bdf8" />
      <stop offset="45%" stop-color="#2563eb" />
      <stop offset="100%" stop-color="#1d4ed8" />
    </linearGradient>
    <linearGradient id="land" x1="0%" y1="0%" x2="100%" y2="100%">
      <stop offset="0%" stop-color="#4ade80" />
      <stop offset="50%" stop-color="#22c55e" />
      <stop offset="100%" stop-color="#16a34a" />
    </linearGradient>
    <radialGradient id="shine" cx="30%" cy="25%" r="60%">
      <stop offset="0%" stop-color="#ffffff" stop-opacity="0.55" />
      <stop offset="100%" stop-color="#ffffff" stop-opacity="0" />
    </radialGradient>
  </defs>
  <circle cx="16" cy="16" r="14" fill="url(#ocean)" />
  <path
    fill="url(#land)"
    d="M6 14c2-3 5-5 10-5s8 2 10 5c-1 4-4 8-10 8s-9-4-10-8z"
  />
  <path
    fill="#facc15"
    d="M19 8c2 1 3 3 3 5-2-1-4-1-6 0 1-2 2-4 3-5z"
    opacity="0.9"
  />
  <path
    fill="#f97316"
    d="M8 18c2 2 5 3 8 3 2 0 4-1 6-2-2 3-5 5-9 5-4 0-7-2-8-5 1-1 2-1 3-1z"
    opacity="0.85"
  />
  <circle cx="16" cy="16" r="14" fill="url(#shine)" />
  <circle cx="16" cy="16" r="14" fill="none" stroke="#0f172a" stroke-opacity="0.12" stroke-width="0.75" />
</svg>
